# xmcd
#
# Track frame offsets:
#	150
#	16654
#	29438
#	42278
#	58396
#	75895
#	92492
#	109604
#	122111
#	137308
#	150574
#	167450
#	184756
#	201626
#
# Disc length: 2905 seconds
#
# Revision: 1
# Processed by: cddbd v1.5.2PL0 Copyright (c) Steve Scherf et al.
# Submitted via: EasyCDDAExtractor 7.0.3.1
#
DISCID=a80b570e
DTITLE=Various Artist - Hitz Country 2006 Vol-06
DYEAR=2006
DGENRE=Country
TTITLE0=Sugarland - Want To
TTITLE1=Gretchen Wilson - California Girls
TTITLE2=Vince Gill - The Reason Why
TTITLE3=Heartland - I Loved Her First
TTITLE4=Joe Nichols - I'll Wait For You
TTITLE5=Taylor Swift - Tim McGraw
TTITLE6=Randy Rogers Band - Kiss Me In the Dark
TTITLE7=Jack Ingram - Love You
TTITLE8=Roseanne Cash - Radio Operator
TTITLE9=Julie Roberts - The Girl Next Door
TTITLE10=Jeff Bates - One Second Chance
TTITLE11=Neal McCoy - Tailgate
TTITLE12=Katrina Elam - Love Is
TTITLE13=Lee Ann Womack - Finding My Way Back Home
EXTD=
EXTT0=
EXTT1=
EXTT2=
EXTT3=
EXTT4=
EXTT5=
EXTT6=
EXTT7=
EXTT8=
EXTT9=
EXTT10=
EXTT11=
EXTT12=
EXTT13=
PLAYORDER=
